<svg width="87" height="65" viewBox="0 0 87 65" fill="none" xmlns="http://www.w3.org/2000/svg">
    <path d="M36.56 30.7973C31.16 36.7973 24.98 41.0373 18.99 45.2073C16.81 46.7173 14.74 48.3473 12.65 49.8473C10.8834 51.0846 9.20589 52.4446 7.63004 53.9173C7.44004 54.0973 7.27004 54.2673 7.11004 54.4373L6.85004 54.7073C6.72003 54.85 6.6029 55.0039 6.50004 55.1673C6.25901 55.5167 6.21015 55.964 6.37004 56.3573C6.67595 56.6527 7.05601 56.8601 7.47004 56.9573L7.98004 57.1073L8.78004 57.2973C9.32004 57.4273 9.87004 57.5473 10.42 57.6573C12.64 58.1073 14.91 58.4473 17.2 58.7473C19.2 58.9773 21.27 59.2273 23.31 59.4173C25.35 59.6073 27.41 59.7373 29.45 59.8473C32.06 59.9973 34.68 60.0473 37.3 60.0573C39.92 60.0673 42.54 60.1173 45.06 59.9473C46.53 59.7973 46.63 60.4073 45.34 61.3873C43.2326 62.7299 40.8302 63.5398 38.34 63.7473C32.86 64.2073 27.41 64.6273 21.91 64.6073C19.1403 64.616 16.3734 64.4289 13.63 64.0473C12.25 63.8773 10.87 63.6673 9.47004 63.4073C8.76004 63.2773 8.07004 63.1473 7.35004 62.9773L6.21004 62.6973C5.62339 62.5632 5.04561 62.3929 4.48004 62.1873C3.22126 61.8469 2.08643 61.1529 1.21004 60.1873C0.98604 59.9589 0.79122 59.7036 0.630041 59.4273C0.494439 59.135 0.377537 58.8344 0.280041 58.5273C0.0921185 57.9115 -0.00226733 57.2711 4.1347e-05 56.6273C0.0538633 55.2928 0.449872 53.9946 1.15004 52.8573L1.71004 51.9873L2.34004 51.1473C2.56004 50.8573 2.70004 50.7173 2.86004 50.5173C3.02004 50.3173 3.18004 50.1673 3.34004 49.9873C5.8015 47.4987 8.47864 45.2332 11.34 43.2173C17.34 38.8973 23.34 34.9273 28.4 30.0673C31.46 27.0673 34.16 23.7173 35.3 19.9973C36.1636 17.2267 35.9858 14.2361 34.8 11.5873C33.8801 9.08664 31.4633 7.45524 28.8 7.53729C26.5515 7.62968 24.3575 8.25704 22.4 9.36729C20.3571 10.5127 18.4429 11.8738 16.69 13.4273C15.89 14.0873 15.18 14.8173 14.42 15.5273C11.63 18.1873 10.74 18.9473 8.78004 18.7573C8.36279 18.762 7.94558 18.7453 7.53004 18.7073C6.90004 18.5773 6.60004 18.0373 6.58004 17.0073C6.66887 15.6168 7.13186 14.2762 7.92004 13.1273C9.30537 10.8592 10.9645 8.77016 12.86 6.90729C14.9327 5.04055 17.2508 3.46596 19.75 2.22729C21.0979 1.55815 22.508 1.02228 23.96 0.627286C24.7365 0.413008 25.5244 0.242737 26.32 0.117286C27.173 0.019681 28.0318 -0.0170786 28.89 0.0072863C30.7845 0.0503779 32.6524 0.461334 34.39 1.21729C36.2282 2.02336 37.8492 3.25366 39.12 4.80729C40.7649 6.82495 41.9094 9.20299 42.46 11.7473C43.0208 14.1581 43.099 16.6561 42.69 19.0973C42.2721 21.3999 41.4818 23.6189 40.35 25.6673C39.3132 27.535 38.0868 29.291 36.69 30.9073L36.56 30.7973Z" fill="#231F20"/>
    <path d="M76.56 30.7973C71.16 36.7973 64.98 41.0373 58.99 45.2073C56.81 46.7173 54.74 48.3473 52.65 49.8473C50.8834 51.0846 49.2059 52.4446 47.63 53.9173C47.44 54.0973 47.27 54.2673 47.11 54.4373L46.85 54.7073C46.72 54.85 46.6029 55.0039 46.5 55.1673C46.259 55.5167 46.2101 55.964 46.37 56.3573C46.6759 56.6527 47.056 56.8601 47.47 56.9573L47.98 57.1073L48.78 57.2973C49.32 57.4273 49.87 57.5473 50.42 57.6573C52.64 58.1073 54.91 58.4473 57.2 58.7473C59.2 58.9773 61.27 59.2273 63.31 59.4173C65.35 59.6073 67.41 59.7373 69.45 59.8473C72.06 59.9973 74.68 60.0473 77.3 60.0573C79.92 60.0673 82.54 60.1173 85.06 59.9473C86.53 59.7973 86.63 60.4073 85.34 61.3873C83.2326 62.7299 80.8302 63.5398 78.34 63.7473C72.86 64.2073 67.41 64.6273 61.91 64.6073C59.1403 64.616 56.3734 64.4289 53.63 64.0473C52.25 63.8773 50.87 63.6673 49.47 63.4073C48.76 63.2773 48.07 63.1473 47.35 62.9773L46.21 62.6973C45.6234 62.5632 45.0456 62.3929 44.48 62.1873C43.2213 61.8469 42.0864 61.1529 41.21 60.1873C40.986 59.9589 40.7912 59.7036 40.63 59.4273C40.4944 59.135 40.3775 58.8344 40.28 58.5273C40.0921 57.9115 39.9977 57.2711 40 56.6273C40.0539 55.2928 40.4499 53.9946 41.15 52.8573L41.71 51.9873L42.34 51.1473C42.56 50.8573 42.7 50.7173 42.86 50.5173C43.02 50.3173 43.18 50.1673 43.34 49.9873C45.8015 47.4987 48.4786 45.2332 51.34 43.2173C57.34 38.8973 63.34 34.9273 68.4 30.0673C71.46 27.0673 74.16 23.7173 75.3 19.9973C76.1636 17.2267 75.9858 14.2361 74.8 11.5873C73.8801 9.08664 71.4633 7.45524 68.8 7.53729C66.5515 7.62968 64.3575 8.25704 62.4 9.36729C60.3571 10.5127 58.4429 11.8738 56.69 13.4273C55.89 14.0873 55.18 14.8173 54.42 15.5273C51.63 18.1873 50.74 18.9473 48.78 18.7573C48.3628 18.762 47.9456 18.7453 47.53 18.7073C46.9 18.5773 46.6 18.0373 46.58 17.0073C46.6689 15.6168 47.1319 14.2762 47.92 13.1273C49.3054 10.8592 50.9645 8.77016 52.86 6.90729C54.9327 5.04055 57.2508 3.46596 59.75 2.22729C61.0979 1.55815 62.508 1.02228 63.96 0.627286C64.7365 0.413008 65.5244 0.242737 66.32 0.117286C67.173 0.019681 68.0318 -0.0170786 68.89 0.0072863C70.7845 0.0503779 72.6524 0.461334 74.39 1.21729C76.2282 2.02336 77.8492 3.25366 79.12 4.80729C80.7649 6.82495 81.9094 9.20299 82.46 11.7473C83.0208 14.1581 83.099 16.6561 82.69 19.0973C82.2721 21.3999 81.4818 23.6189 80.35 25.6673C79.3132 27.535 78.0868 29.291 76.69 30.9073L76.56 30.7973Z" fill="#231F20"/>
</svg>
