<svg width="72" height="51" viewBox="0 0 72 51" fill="none" xmlns="http://www.w3.org/2000/svg">
    <path d="M0.716243 28.1572C1.08224 25.7894 3.61284 25.3454 4.32392 23.1467C3.51873 22.9458 2.81811 22.7767 2.11749 22.597C1.67829 22.4807 1.21818 22.3962 0.799901 22.227C0.182937 21.9839 -0.0680313 21.4448 0.0156248 20.7577C0.109738 20.0706 0.528017 19.6583 1.16589 19.5843C1.83514 19.5103 2.50439 19.4892 3.48735 19.4152C3.01679 18.6224 2.66125 18.0939 2.36845 17.5336C1.90834 16.6245 1.41686 15.7154 1.0927 14.7429C0.977668 14.3941 1.20773 13.6964 1.49007 13.4956C1.77241 13.2947 2.43119 13.3582 2.73445 13.5907C3.37232 14.0875 3.95792 14.7112 4.44939 15.3772C5.31733 16.5928 6.09115 17.893 6.93817 19.1298C7.23096 19.5526 7.57604 20.134 7.97341 20.2186C9.81384 20.6203 11.6752 20.8634 13.8084 21.2122C13.8084 19.9332 13.7771 18.9184 13.8084 17.9036C13.9862 13.1256 15.1469 8.69645 18.0435 4.95441C19.748 2.75569 21.7453 0.979804 24.4641 0.292704C27.3816 -0.436678 29.954 0.176425 32.1082 2.36457C35.0362 5.33496 36.9812 8.85502 36.9812 13.337C36.9812 13.8867 37.0334 14.4364 37.0962 14.9861C37.1171 15.1446 37.253 15.2926 37.4726 15.6732C37.8805 15.2715 38.2255 14.9332 38.5602 14.5844C40.2228 12.893 41.7705 11.0537 43.5691 9.55269C47.0931 6.62459 51.0354 5.72608 55.3855 7.32226C59.0977 8.68589 61.1159 12.2905 60.499 16.7725C60.0912 19.7535 58.92 22.3856 57.341 24.838C56.8599 25.578 56.4207 26.3496 55.8038 27.3856C59.2755 28.2735 62.5381 28.7069 66.219 29.1086C65.7484 28.1361 65.4556 27.5653 65.1942 26.9839C64.8491 26.2122 64.4099 25.4511 64.2635 24.6266C64.1798 24.1403 64.4413 23.411 64.7968 23.0516C65.2569 22.5864 65.9052 22.8401 66.3235 23.337C66.7 23.7915 67.0555 24.2883 67.3169 24.8274C68.2476 26.7619 69.5443 28.3792 71.0187 29.8591C72.5141 31.3496 72.3049 32.4912 70.3599 33.1995C67.6202 34.1931 65.0687 35.5356 62.7054 37.3115C62.3812 37.5546 62.0152 37.84 61.6492 37.8929C61.2519 37.9563 60.614 37.9035 60.4467 37.6498C60.2689 37.3644 60.3526 36.5927 60.5931 36.3496C61.5028 35.4299 62.5276 34.6371 63.5211 33.802C63.9812 33.4109 64.4622 33.0409 64.9327 32.6709C64.8909 32.523 64.8491 32.375 64.8177 32.227C63.542 32.0156 62.2767 31.783 61.0009 31.5927C58.7317 31.2545 56.4626 30.9585 54.1934 30.6308C53.3464 30.5039 52.6876 30.7576 52.0288 31.413C45.5873 37.7343 38.5811 43.2523 31.073 48.062C29.9436 48.7914 28.877 49.6159 27.7372 50.3453C25.8967 51.5292 24.3177 51.0958 23.1988 49.1402C22.7492 48.358 22.3623 47.5334 22.0067 46.6983C19.1938 40.0493 16.5272 33.3369 14.9064 26.2122C14.6345 25.0177 14.164 24.4152 12.9719 24.3412C11.717 24.2566 10.4831 23.9712 9.23871 23.7387C8.43352 23.5907 7.84792 23.9078 7.2205 24.4469C5.84018 25.6414 4.39712 26.7407 2.94359 27.8401C2.33708 28.2946 1.67829 28.6963 0.705791 28.1572H0.716243ZM22.7701 22.5653C22.7701 21.5822 22.7701 20.9797 22.7701 20.3877C22.7701 19.7218 22.6551 18.8127 23.4498 18.7175C24.4118 18.6013 24.4327 19.6689 24.4641 20.3032C24.6523 23.2947 24.7465 26.3073 24.8406 29.3094C24.8406 29.542 24.6837 29.7957 24.6001 30.0283C24.004 29.0663 23.7635 28.0832 23.4393 27.1319C23.2929 26.709 23.0629 26.0748 22.7492 25.9902C21.2224 25.5462 19.6643 25.2397 18.0853 25.3031C17.8657 28.3475 24.0772 45.3559 26.0954 47.4066C31.2925 45.1022 46.999 32.8189 48.3479 29.8697C47.595 29.7323 46.863 29.69 46.1938 29.4469C45.0226 29.024 44.2383 29.4574 43.4959 30.4194C42.7534 31.3813 41.9482 32.301 40.662 33.2418C40.8816 32.5969 40.9235 32.3644 41.028 32.1635C42.5129 29.1615 44.5102 26.5399 46.5493 23.9606C46.6957 23.7704 46.863 23.5484 47.0617 23.485C47.3545 23.4004 47.7101 23.3687 47.9819 23.485C48.0865 23.5272 48.1283 24.0452 48.0447 24.2883C47.8564 24.838 47.5741 25.356 47.2186 26.1382C48.3898 26.3813 49.3936 26.5505 50.3766 26.8042C51.3282 27.0473 52.0392 26.7196 52.6667 25.9585C54.3921 23.8761 55.8456 21.6139 56.8913 19.0558C57.456 17.671 57.5815 16.2228 57.5396 14.7324C57.4978 12.893 56.7135 11.5611 55.1973 10.7578C53.064 9.62669 50.8576 9.26728 48.5466 10.2081C46.748 10.9375 45.0853 11.8994 43.7468 13.3687C41.7182 15.6097 39.7732 17.9564 37.8073 20.2609C37.3785 20.7577 37.0544 21.4025 36.5524 21.7514C36.1237 22.0368 35.4649 22.1425 34.9734 22.0262C34.7224 21.9628 34.5342 21.2545 34.4506 20.8105C34.3669 20.3349 34.4401 19.8275 34.4401 19.3412C34.4401 17.5019 34.461 15.6732 34.4401 13.8338C34.3983 10.1129 32.8088 7.13199 30.4351 4.56329C28.2914 2.2483 25.6771 1.93117 22.8956 3.8022C17.2279 7.61824 15.9939 14.6372 16.7782 20.4617C16.841 20.9163 17.2697 21.5822 17.6357 21.6668C19.2356 22.0473 20.8774 22.2482 22.7492 22.5547L22.7701 22.5653Z" fill="black"/>
</svg>
