<svg width="49" height="57" viewBox="0 0 49 57" fill="none" xmlns="http://www.w3.org/2000/svg">
    <path d="M22.4775 12.2844C27.4374 9.93673 31.2704 5.72646 33.1435 0.568561C33.2631 0.256875 34.9327 10.8259 41.1423 12.9667C41.1423 12.9667 33.5223 16.4564 31.6077 23.597C31.6131 23.6969 31.2794 17.8934 22.4775 12.2844Z" fill="#231F20"/>
    <path d="M32.7822 46.6014C36.866 44.6658 40.0182 41.1933 41.551 36.9419C41.6482 36.6869 43.0153 45.3823 48.1476 47.1406C48.1476 47.1406 41.8862 50.0121 40.3076 55.8821C40.2849 55.9601 40.0115 51.1917 32.7822 46.6014Z" fill="#231F20"/>
    <path d="M0.389635 32.8575C4.33147 30.9858 7.37727 27.6365 8.86735 23.5352C8.95738 23.2801 10.287 31.6753 15.2421 33.3735C15.2421 33.3735 9.18965 36.1203 7.67142 41.7988C7.63415 41.8908 7.37222 37.2866 0.389635 32.8575Z" fill="#231F20"/>
</svg>
