<svg width="90" height="78" viewBox="0 0 90 78" fill="none" xmlns="http://www.w3.org/2000/svg">
    <path d="M63.9987 56.0373C65.9317 56.0373 67.4987 57.6043 67.4987 59.5373C67.4987 62.9772 67.1544 66.667 65.486 69.8176C63.7016 73.1872 60.6409 75.5153 56.1726 76.5852C51.3557 77.7384 47.1876 76.5754 43.8698 74.1721C40.6707 71.8547 38.3563 68.4678 36.7477 65.1614C35.9021 63.4231 36.6257 61.3283 38.364 60.4826C40.102 59.6374 42.196 60.3611 43.0417 62.0989C44.3664 64.8219 46.0463 67.1051 47.9763 68.5031C49.7875 69.8152 51.8835 70.4142 54.5427 69.7776C57.3121 69.1145 58.5728 67.9134 59.2995 66.5412C60.142 64.9502 60.4987 62.685 60.4987 59.5373C60.4987 57.6044 62.0659 56.0375 63.9987 56.0373ZM31.0524 14.1828C32.4964 13.7733 34.8489 13.4914 36.9362 15.0569C38.6006 16.3054 39.1418 18.225 39.3659 19.2375C39.5705 20.1618 39.6691 21.1813 39.7253 21.7649C39.7371 21.8871 39.7469 21.9904 39.7556 22.0696C40.0835 25.0593 40.3963 28.9577 39.6501 32.5149C37.6865 41.8742 31.2059 48.0918 24.1286 52.5617C22.6909 53.4697 20.8454 53.2012 19.7194 52.011C17.8025 53.2053 15.7535 52.508 14.8181 52.05C13.6621 51.484 12.6164 50.5915 11.8347 49.8469C10.5768 48.6488 9.27401 47.0933 8.66083 46.3615C8.51625 46.189 8.40946 46.0628 8.35126 45.9973C6.18607 43.5614 3.86244 40.5001 2.2204 37.0725C0.580249 33.6488 -0.485061 29.6323 0.222356 25.427C0.622844 23.0463 1.82037 20.257 3.82782 18.3322C4.86685 17.3361 6.25569 16.4501 7.97626 16.1526C9.75243 15.8454 11.5345 16.2263 13.1706 17.1887C15.5621 18.5955 17.4693 20.6256 19.0085 22.5676C19.3467 22.9943 19.6775 23.4357 20.0026 23.8781C20.0613 23.7678 20.109 23.6753 20.1472 23.6067C21.8164 20.602 24.5444 17.6946 27.4597 15.8655C28.2524 15.3681 29.5658 14.6045 31.0524 14.1828ZM32.5895 21.0471C32.1597 21.2196 31.672 21.4867 31.1804 21.7951C29.2878 22.9827 27.3753 25.0101 26.2663 27.0061C26.1778 27.1653 26.0287 27.4495 25.862 27.7893C26.9387 29.3866 26.5228 31.5556 24.9284 32.6399C24.4271 32.9808 23.6854 33.4284 22.8073 33.6242C22.3639 33.7231 21.7105 33.7946 20.9675 33.6164C19.6121 33.9389 18.1374 33.4305 17.2897 32.2199C16.9152 31.685 16.5546 31.1586 16.1999 30.6399C15.3233 29.3578 14.4787 28.1219 13.5231 26.9162C12.207 25.2557 10.9323 23.9939 9.62177 23.2229C9.41388 23.1006 9.28567 23.0652 9.23505 23.0549C9.19127 23.0461 9.17494 23.0491 9.16962 23.05H9.16865C9.15569 23.0523 8.9811 23.0892 8.67255 23.385C7.98004 24.0489 7.3335 25.3469 7.1247 26.5881C6.73536 28.9027 7.27365 31.4193 8.5329 34.0481C9.79043 36.673 11.6623 39.1843 13.5837 41.3459C13.7957 41.5845 14.0322 41.8662 14.2917 42.175C14.9436 42.9509 15.7409 43.9005 16.6628 44.7785C16.975 45.0759 17.2357 45.2976 17.4401 45.4563C18.568 45.2564 19.7669 45.6154 20.6032 46.5061C26.8212 42.536 31.4075 37.7126 32.7995 31.0774C33.2952 28.7146 33.1236 25.8057 32.7976 22.8332C32.7799 22.6721 32.7623 22.497 32.7468 22.3381C32.744 22.3097 32.7416 22.2814 32.739 22.2541C32.7203 22.064 32.7022 21.8833 32.6813 21.7024C32.6537 21.4625 32.6235 21.2444 32.5895 21.0471ZM60.7048 0.124241C62.737 -0.279044 64.5703 0.367221 65.8884 1.09104C68.4723 2.51007 70.6252 5.07002 71.7673 6.76194C72.3426 7.61422 72.8662 8.46943 73.3483 9.32932C73.6261 8.91848 73.906 8.55312 74.1608 8.24045C75.6951 6.35764 77.6349 4.79543 78.8786 3.91916C79.3819 3.56459 80.2447 3.02659 81.2116 2.61838C81.6959 2.41394 82.3164 2.19482 83.0017 2.08127C83.6489 1.97402 84.6723 1.9065 85.7497 2.34201C89.444 3.83545 89.9889 7.66053 89.989 9.50608C89.989 12.2908 88.9802 15.0926 88.2702 17.0656C88.1507 17.3977 88.0404 17.7065 87.944 17.9875C86.8733 21.1105 85.3633 24.1477 83.7751 26.8703C80.3891 32.6749 75.3123 35.8072 69.8786 38.136C68.4347 38.7547 66.805 38.3272 65.8366 37.1916C65.7013 37.1851 65.5803 37.1731 65.4772 37.1574C65.0076 37.0863 64.6534 36.9357 64.4665 36.8469C63.8862 36.5711 63.4555 36.1657 63.3327 36.05C63.3276 36.0452 63.3231 36.0401 63.319 36.0364C62.7276 35.4818 62.371 34.77 62.2546 34.0266C62.1851 33.9188 62.1286 33.8333 62.0993 33.7893C60.3507 31.1663 58.9084 28.5875 57.6716 25.5696C56.5838 22.9153 55.1739 19.3551 54.4831 15.6721C53.7975 12.0166 53.7183 7.72358 55.861 3.91428C56.9294 2.01519 58.5348 0.554892 60.7048 0.124241ZM62.1481 7.05295C62.0981 7.12063 62.0352 7.21604 61.9616 7.3469C60.9812 9.09023 60.8127 11.4481 61.363 14.3821C61.9082 17.2886 63.06 20.2578 64.1491 22.9153C65.1777 25.425 66.3815 27.5934 67.9235 29.9065C68.0036 30.0266 68.3257 30.5169 68.6276 31.0217C72.6641 29.1149 75.6749 26.8646 77.7292 23.343C79.1626 20.8856 80.4441 18.2775 81.322 15.717C81.4758 15.2684 81.6245 14.8458 81.7653 14.4455C82.462 12.4652 82.9691 11.023 82.988 9.58908C82.959 9.60853 82.9331 9.62612 82.9108 9.64182C81.9617 10.3105 80.5741 11.4518 79.5876 12.6623C79.0954 13.2663 78.8134 13.7545 78.6872 14.093C78.6521 14.1872 78.6353 14.2511 78.6276 14.2893C79.113 15.9044 78.3724 17.6117 76.9216 18.383C76.8867 19.816 75.9672 21.1389 74.529 21.6184C72.6952 22.2297 70.7125 21.2383 70.1013 19.4045C69.025 16.1759 67.7888 13.3792 65.9655 10.678C65.0971 9.39145 63.6967 7.87391 62.5183 7.22678C62.3591 7.13939 62.2368 7.08562 62.1481 7.05295Z" fill="black"/>
</svg>
