<svg width="100" height="101" viewBox="0 0 100 101" fill="none" xmlns="http://www.w3.org/2000/svg">
    <path d="M28.8816 95.7948L28.7101 95.6968C28.7101 95.6968 28.7101 95.6233 28.5754 95.6968L28.502 95.6111C28.4485 95.5017 28.4074 95.3867 28.3795 95.2682L28.1713 94.5334C28.0978 94.2885 28.0244 93.9824 27.9509 93.6885C27.8774 93.3946 27.9509 93.3333 27.9509 93.1374L28.0489 92.5374C28.2326 91.7046 28.4407 90.8719 28.5999 90.0882L28.7836 89.182L28.8938 88.5697C29.1983 86.9195 29.3865 85.25 29.4571 83.5734C29.5184 82.3488 29.3837 81.1242 29.3592 79.8996C29.2283 75.4819 28.5328 71.0991 27.2896 66.8578C26.7405 64.9417 26.0445 63.0707 25.2078 61.2615C24.0515 59 23.0172 56.6781 22.1096 54.3058C21.8525 53.5466 22.5137 53.2772 23.5057 53.5099C24.8119 53.8276 25.9546 54.6171 26.7141 55.7264C27.0814 56.2897 27.4488 56.8652 27.7795 57.4653L28.306 58.347C28.453 58.6531 28.5877 58.9593 28.7224 59.2776C29.2857 60.5022 29.7755 61.7268 30.2409 63.0739C31.1446 65.6683 31.8046 68.3413 32.2125 71.0581C32.7967 74.3651 33.2054 77.7006 33.437 81.0508C33.488 82.9062 33.4226 84.7631 33.2411 86.6104C33.1554 87.5288 33.0207 88.4595 32.8737 89.3657L32.7635 90.0515L32.69 90.3454L32.5308 90.9454L32.3227 91.7291C32.3107 91.7939 32.3107 91.8603 32.3227 91.9251C32.3227 91.9251 32.4329 91.9251 32.4819 91.9251C32.5308 91.9251 32.7268 91.9251 32.8492 91.9251L34.6004 91.6312C37.9694 91.0655 41.3873 90.8439 44.8012 90.9699C47.445 90.9912 50.0842 91.1957 52.6998 91.5822C53.2753 91.6802 53.8509 91.7414 54.4264 91.8883C56.5572 92.4394 57.096 93.0272 57.1083 94.2518C57.1266 94.5331 57.1266 94.8154 57.1083 95.0967C56.9613 95.9907 55.8837 96.3213 54.4632 96.1621C50.1288 95.4095 45.7345 95.057 41.3356 95.109C39.672 95.157 38.0122 95.296 36.3638 95.5253L35.1392 95.7213C34.38 95.856 33.4983 96.0397 32.69 96.2478C32.2889 96.37 31.8797 96.4641 31.4655 96.5295L30.8654 96.603C30.6817 96.603 30.5348 96.603 30.3633 96.603C30.2135 96.5942 30.0691 96.5433 29.947 96.456L29.5918 96.2723L28.8816 95.8682V95.7948Z" fill="black"/>
    <path d="M29.0653 58.3223C31.3578 64.7767 32.5982 71.5575 32.7391 78.4055C32.8126 80.8547 32.9718 83.3038 32.8861 85.6306C32.8126 87.7123 32.6901 89.7941 32.6779 91.6678V92.3903C32.666 92.5656 32.666 92.7415 32.6779 92.9168C32.671 93.2902 32.91 93.6237 33.2657 93.7373C33.6403 93.7742 34.0177 93.7742 34.3923 93.7373L37.4538 93.4189C39.5233 93.1617 41.6173 92.9291 43.7236 92.7576C47.5026 92.3703 51.3024 92.223 55.1 92.3168C57.642 92.3848 60.1631 92.7967 62.5945 93.5414C63.8411 93.9891 65.0294 94.5853 66.1335 95.317C67.2423 96.0968 68.1868 97.0871 68.9133 98.2315C69.8073 99.6765 68.9133 99.9459 67.3214 99.9949C66.3071 100.032 65.2965 100.139 64.2966 100.313C63.7709 100.356 63.2427 100.356 62.7169 100.313C62.1899 100.3 61.6652 100.239 61.1495 100.13C60.6964 100.007 60.2188 99.9459 59.7412 99.848C59.2636 99.75 58.786 99.6398 58.3084 99.5296C57.2994 99.347 56.2816 99.2162 55.2592 99.1377C53.104 98.9713 50.9408 98.9345 48.7812 99.0275C46.5524 99.1132 44.2992 99.2847 41.997 99.5051L34.4658 100.215C33.281 100.4 32.0748 100.4 30.89 100.215C30.624 100.155 30.3622 100.077 30.1062 99.9827L29.9103 99.897V99.897C29.9103 99.8235 29.9103 99.897 29.9103 99.897H29.8123L29.4327 99.7133C29.1723 99.5873 28.9328 99.4221 28.7225 99.2234C28.502 99.0398 28.3046 98.8301 28.1347 98.5989C27.3962 97.6955 26.9065 96.6148 26.7141 95.464C26.573 94.8727 26.4828 94.2705 26.4447 93.6638C26.3986 93.3637 26.3699 93.0611 26.359 92.7576V92.0964C26.2611 88.9247 26.359 86.0592 26.359 83.1814C26.5069 76.983 25.7562 70.7958 24.1303 64.8126C23.0838 61.1688 21.6166 57.6592 19.7585 54.3547C19.4769 53.8648 19.2074 53.3628 18.8891 52.8852L18.436 52.1504C18.191 51.7708 17.9584 51.4034 17.7012 51.0483C16.5256 49.5298 15.4112 48.0481 14.3091 46.652L12.7784 43.8722L12.0069 41.9986C12.0069 41.8272 11.7865 41.7292 11.9212 41.472C12.0706 41.2917 12.2536 41.1419 12.46 41.0312C12.8494 40.818 13.2597 40.6457 13.6846 40.5169C14.5942 40.231 15.5366 40.0623 16.4889 40.0148C17.9536 39.9451 19.4214 40.052 20.8606 40.3332C22.4552 40.6037 24.0333 40.9635 25.5875 41.4108L26.8121 41.8027L27.1183 41.9129L27.3387 41.9864L27.7795 42.1578C28.3796 42.366 29.0041 42.6232 29.5429 42.8803C30.7051 43.4231 31.8265 44.0492 32.8983 44.7539C33.8686 45.37 34.7824 46.0707 35.6291 46.848C36.3012 47.4627 36.9047 48.1484 37.4293 48.893C37.7695 49.4248 38.0102 50.014 38.1395 50.6319C38.2436 51.0915 38.2436 51.5684 38.1395 52.028C37.9799 52.4614 37.7659 52.8729 37.5027 53.2525C37.3152 53.5812 37.1108 53.9001 36.8904 54.2077C36.3149 54.8935 34.0984 54.3792 32.2983 52.8729C31.0234 51.6822 29.628 50.6274 28.1347 49.7257C27.3952 49.2671 26.6261 48.858 25.8324 48.5012C25.4406 48.3052 25.0365 48.1338 24.6079 47.9623L24.4487 47.9011H24.3017C24.0813 48.0358 24.3017 48.1583 24.3017 48.146V48.146V48.146V48.146C24.3017 48.146 24.3017 48.0726 24.3752 48.2807L24.914 49.1379C25.2814 49.689 25.5875 50.3013 25.9182 50.8769C27.2378 53.2396 28.3838 55.6953 29.347 58.2244L29.0653 58.3223Z" fill="black"/>
    <path d="M59.4961 51.4279C59.3369 50.8033 59.19 50.2033 59.0675 49.542L58.8716 48.5991L58.7369 47.8276L58.4307 45.7213C58.2471 44.3253 58.1001 42.9292 57.9654 41.5332C57.8307 40.1372 57.745 38.7534 57.6593 37.3819L57.5858 36.341C57.5858 36.1206 57.5858 36.1206 57.5858 36.0838V35.9614V35.4715C57.5858 34.9082 57.4633 34.6143 57.4878 33.9898C57.4878 33.6591 57.4878 33.2918 57.4878 32.8876C57.4995 32.6837 57.4995 32.4793 57.4878 32.2754C57.4878 32.1774 57.4021 32.0549 57.3531 32.0917C57.3041 32.1284 57.2796 32.0917 57.2429 32.1651C56.9078 32.499 56.6158 32.8733 56.3734 33.2795C56.1163 33.6469 55.8346 34.1 55.5285 34.6266L55.0509 35.4715L54.0222 37.4553L49.6995 45.856C48.7936 47.6903 47.7795 49.4691 46.6625 51.1829C46.0683 52.0415 45.4179 52.8597 44.7154 53.6321C43.9648 54.4476 43.1129 55.1637 42.1805 55.7629C40.9559 56.5466 40.4049 55.2118 40.2579 53.5219C40.2356 53.114 40.2356 52.7052 40.2579 52.2973C40.254 51.8342 40.2867 51.3715 40.3559 50.9135C40.4887 49.9773 40.8366 49.0845 41.3723 48.3052C43.4325 45.1075 45.325 41.8048 47.0421 38.4105C47.9973 36.6063 48.9239 34.8184 49.8219 33.0468C50.6669 31.3324 51.4629 29.6425 52.2711 28.0628C53.0793 26.4831 53.8875 24.9156 54.7203 23.6543L55.3081 22.6624L55.6264 22.2338C55.7199 22.1265 55.8269 22.0318 55.9448 21.9521L56.5449 21.4133L57.1449 20.85C57.3164 20.7275 57.4878 20.6541 57.647 20.5316C57.9584 20.3216 58.2814 20.1295 58.6144 19.956L59.0675 19.7234C59.2705 19.5911 59.5215 19.5552 59.7533 19.6254C60.1347 19.8049 60.4605 20.0842 60.6962 20.4336C60.946 20.7561 61.179 21.0913 61.3942 21.4378C62.0431 22.5244 62.46 23.7335 62.6188 24.9891C62.925 26.9974 63.0352 29.3731 63.2189 31.5896L63.672 37.1859C63.8924 39.8555 64.1863 42.5006 64.6027 45.109L65.0435 47.7663C65.1537 48.3909 65.3007 48.9909 65.4721 49.7134C65.5823 50.1175 65.7048 50.5339 65.8517 50.938C65.9987 51.3421 66.0966 51.6115 66.2314 51.9544C66.2345 51.9963 66.2613 52.0328 66.3003 52.0484C66.3393 52.064 66.3838 52.056 66.415 52.0279L66.562 51.8565C66.6477 51.7218 66.7334 51.5993 66.8069 51.4646L67.7866 49.7624C68.1172 49.1746 68.4846 48.5378 68.8642 47.95L69.7704 46.505L70.8725 44.8641C73.1009 41.3316 75.8742 38.1739 79.0895 35.5083C79.8268 34.9033 80.6087 34.3548 81.4284 33.8673C82.5244 33.1438 83.7914 32.7215 85.1022 32.6427C85.9465 32.6915 86.7141 33.1484 87.1595 33.8673C87.4311 34.186 87.6768 34.5259 87.8943 34.8837C88.4821 36.1083 87.5391 37.3941 85.8614 38.5575C83.345 40.3014 81.0611 42.3589 79.065 44.6804C78.0169 45.8955 77.0357 47.1669 76.126 48.4889C75.6607 49.1624 75.2076 49.8604 74.7667 50.5584L74.3871 51.1707L73.6891 52.3953C73.2237 53.1913 72.7829 54.0117 72.342 54.8444C71.4893 56.6353 70.4683 58.341 69.2928 59.9387C68.8841 60.4128 68.3844 60.8001 67.8233 61.0776C67.4414 61.2818 67.0271 61.4185 66.5987 61.4817C66.1916 61.5241 65.7812 61.5241 65.3741 61.4817C65.1432 61.4551 64.9142 61.4142 64.6884 61.3592C64.4856 61.3055 64.2887 61.2316 64.1006 61.1388C63.0002 60.6669 62.1233 59.79 61.6514 58.6896C60.6407 56.3684 59.8215 53.9684 59.2022 51.5136L59.4961 51.4279Z" fill="black"/>
    <path d="M73.7871 72.5275C74.326 71.0213 74.9138 69.5396 75.4893 68.0701C76.0649 66.6006 76.7139 65.131 77.2527 63.6615C77.6691 62.5962 77.9262 61.4818 78.4038 60.4286C79.9958 56.7549 81.7469 53.0811 83.3756 49.4074C84.1104 47.7909 84.7227 46.1133 85.3105 44.509C85.9734 42.3195 86.9866 40.2517 88.3107 38.3861C88.7516 37.8106 89.3884 38.1535 89.9394 39.0107C90.6315 40.0592 90.9507 41.31 90.8456 42.562L90.5272 44.2886C90.3834 44.8198 90.2117 45.343 90.0129 45.8561C89.6455 46.9337 89.2414 47.9991 88.7883 49.0645C87.9678 51.1953 87.0861 53.3016 86.0575 55.3834C85.4849 56.6599 85.01 57.9781 84.637 59.3265C84.2451 60.6736 83.8777 62.0451 83.4124 63.3799L81.9919 67.7762L80.6326 72.1847C80.1305 74.0093 79.5794 75.8584 79.1018 77.6463C78.3179 80.383 77.7408 83.1748 77.3752 85.998C77.3079 87.0827 77.3079 88.1706 77.3752 89.2554C77.4487 90.333 77.5466 91.3739 77.5956 92.427C77.5956 92.8924 77.6813 93.3455 77.7181 93.7863C77.8528 95.4518 77.2527 96.0151 75.7465 96.5416C75.3914 96.6519 75.0485 96.8111 74.6933 96.8968C73.5422 97.1907 72.4768 96.5294 71.8646 95.0966C71.6809 94.5578 71.4972 94.019 71.338 93.4679C71.1788 92.9169 71.1053 92.3903 70.9951 91.8392C70.8849 91.2882 70.8114 90.7371 70.7379 90.1738C70.6428 89.6199 70.6018 89.058 70.6155 88.4961C70.6579 86.2899 70.8791 84.0907 71.2768 81.9201C71.5383 80.3158 71.8817 78.7258 72.3054 77.1565C72.6728 75.5768 73.1136 74.0338 73.628 72.503L73.7871 72.5275Z" fill="black"/>
    <path d="M16.2317 21.5603C16.4008 22.1696 16.467 22.8028 16.4276 23.4339C16.4318 24.0676 16.3111 24.696 16.0725 25.283C15.8511 25.8585 15.5764 26.4119 15.252 26.9362C14.8907 27.4407 14.4805 27.9083 14.0274 28.3323C13.7213 28.6507 13.3661 28.9323 13.0477 29.2507C12.6845 29.5276 12.3041 29.7811 11.9089 30.0099C8.71426 31.4918 4.93614 30.8434 2.41835 28.3812L1.62237 27.4873C1.37312 27.18 1.14405 26.8568 0.936598 26.5199C0.574855 25.8334 0.342403 25.0862 0.250831 24.3156C0.177638 23.8121 0.177638 23.3007 0.250831 22.7971C0.35481 22.2962 0.532251 21.8134 0.777402 21.3644C1.02998 20.9767 1.3213 20.6156 1.64686 20.2867C1.98359 20.0189 2.35416 19.7965 2.74898 19.6255C3.25106 19.4173 3.71641 20.299 4.10827 21.2909C4.31645 21.793 4.51239 22.2951 4.65934 22.7114C4.80629 23.1278 5.03896 23.4217 4.97773 23.5319C4.9165 23.6421 5.0512 23.6911 4.97773 23.7401C4.90425 23.7891 5.06345 23.7401 5.08794 23.7401C5.11243 23.7401 5.08794 23.7401 5.14917 23.7401C5.1602 23.7633 5.1602 23.7903 5.14917 23.8135C5.07569 23.9238 5.01447 24.2422 5.3696 24.7932C5.54636 25.0744 5.85802 25.2419 6.19007 25.2341C6.46639 25.195 6.73748 25.1252 6.99829 25.0259C7.82939 24.8742 8.52364 24.3049 8.83517 23.5196C8.96109 23.0048 8.81827 22.4611 8.45555 22.0746C7.86215 21.351 6.93185 20.9928 6.00638 21.1317C5.28289 21.3375 4.70353 21.8804 4.45116 22.589C4.41552 22.7106 4.37048 22.8294 4.31645 22.9441C4.23645 23.0522 4.12538 23.1334 3.99806 23.1768C3.82753 23.2017 3.65427 23.2017 3.48373 23.1768C3.00153 23.1161 2.53103 22.9841 2.08771 22.7849C1.80605 22.6747 1.53664 22.6012 1.27948 22.491C0.866653 22.3272 0.524318 22.0239 0.31206 21.6338C0.0578493 21.1797 -0.0450939 20.6564 0.0181597 20.1398L0.201847 19.5153C0.299814 19.2948 0.446764 19.0622 0.569223 18.8295C0.832505 18.3429 1.1809 17.9074 1.59787 17.5437C2.0142 17.1527 2.46505 16.8002 2.94492 16.4905C3.44489 16.2048 3.96462 15.9552 4.50014 15.7435C5.57454 15.3565 6.71488 15.1859 7.8555 15.2415C8.91305 15.3032 9.95436 15.5305 10.9415 15.915C11.6251 16.1712 12.2716 16.5171 12.8641 16.9436C13.1183 17.1732 13.384 17.3898 13.66 17.5927C13.9495 17.7773 14.2095 18.0043 14.4315 18.2662C15.3208 19.2153 15.9825 20.3544 16.3664 21.597L16.2317 21.5603Z" fill="black"/>
    <path d="M62.7046 8.42056C62.6165 9.03463 62.452 9.63526 62.2147 10.2085C61.9335 10.7529 61.5837 11.2591 61.1738 11.7147C60.3673 12.6062 59.4096 13.3482 58.345 13.9067C57.5606 14.3202 56.6957 14.5583 55.8102 14.6047C52.516 14.7517 49.9199 11.0534 49.8709 8.70221C49.8157 8.10344 49.8157 7.50085 49.8709 6.90207C49.9121 6.26515 50.0963 5.64568 50.4097 5.08969C50.7436 4.31288 51.3191 3.66442 52.0507 3.24057C52.7062 2.87581 53.4653 2.7421 54.206 2.86095C54.6468 2.93442 54.6223 3.68142 54.4999 4.51413C54.3774 5.34685 54.2549 6.31427 54.206 6.5347C54.1684 6.59869 54.1603 6.67579 54.1838 6.74619C54.2072 6.81658 54.26 6.87341 54.3284 6.90207C54.4302 6.94475 54.513 7.02313 54.5611 7.1225C54.6441 7.30222 54.7177 7.48616 54.7815 7.67356C54.7815 7.79602 54.7815 7.94297 54.7815 8.07767C54.7815 8.21238 54.708 8.27361 54.6958 8.40831C54.6429 8.65226 54.7646 8.90056 54.9897 9.00836C55.1986 9.10132 55.4227 9.15528 55.651 9.16755C56.2824 9.20163 56.8875 8.91063 57.2552 8.39607C57.5095 8.01291 57.5421 7.52378 57.3409 7.11025C57.0346 6.31263 56.2949 5.76386 55.4428 5.70198C55.0999 5.70198 54.7693 5.84893 54.7325 6.05711C54.7325 6.05711 54.7325 6.05711 54.7325 6.13059C54.7325 6.20406 54.7325 6.13059 54.7325 6.13059C54.6998 6.07988 54.6711 6.02664 54.6468 5.97139C54.6468 5.97139 54.6468 5.97139 54.8305 6.10609C55.0142 6.2408 55.0387 6.2408 55.1611 6.27754L55.3203 6.33876V6.33876C55.1281 6.43188 54.9271 6.50572 54.7203 6.55919C54.2304 6.6694 53.7161 6.76737 53.1038 6.86534L52.3323 7.02453C51.9161 7.0827 51.492 7.02331 51.1078 6.85309C50.8295 6.74551 50.5628 6.61012 50.3118 6.44898C49.9811 6.26529 49.9444 6.00813 49.8097 5.72647C49.6364 5.26133 49.5654 4.76429 49.6015 4.26922C49.6778 3.65146 49.8688 3.0534 50.1648 2.50582C50.8951 1.28094 52.1096 0.422313 53.5079 0.142368C54.567 -0.0825262 55.6654 -0.0404432 56.7041 0.264826C57.1254 0.388147 57.5351 0.547947 57.9287 0.742414C58.3366 0.935382 58.7192 1.17806 59.0676 1.46492C61.5167 3.15485 63.1087 5.82444 62.7413 8.39607L62.7046 8.42056Z" fill="black"/>
    <path d="M97.1032 21.6949C96.1689 22.5251 95.018 23.0729 93.7846 23.2746L93.2825 23.3359C93.1603 23.3482 93.0373 23.3482 92.9151 23.3359C92.6947 23.3359 92.4988 23.3359 92.2294 23.3359C91.6566 23.2794 91.093 23.1518 90.5517 22.9563C90.3312 22.8705 90.0863 22.7726 89.8169 22.6379C89.543 22.5074 89.2843 22.3473 89.0454 22.1603C87.8085 21.2453 87.2591 19.6654 87.6617 18.1804C87.7889 17.6504 87.9953 17.1426 88.2739 16.6741C88.7102 15.9501 89.2145 15.2694 89.7802 14.6413C90.2333 14.127 90.5884 13.5882 91.0048 13.0494C91.4327 12.1983 92.2034 11.5701 93.1233 11.3227C93.5274 11.237 93.8213 12.0819 94.1887 12.9147C94.5561 13.7474 95.0704 14.5678 94.9847 14.8373C94.631 15.9167 94.074 16.9184 93.3437 17.7885C93.1111 18.0089 93.0743 18.2906 93.1355 18.3518C93.1968 18.413 93.1355 18.3518 93.1355 18.3518H92.7559C92.5478 18.3689 92.3423 18.41 92.1436 18.4743C91.9978 18.5005 91.8597 18.5591 91.7395 18.6457C91.9083 18.427 92.0217 18.1707 92.0702 17.8987C92.1117 17.7214 92.1403 17.5413 92.1559 17.3599H92.2538H92.4375V17.3599C92.3763 16.9068 92.5233 17.9844 92.511 17.8742V17.8742V17.9355C92.511 17.9355 92.511 17.8742 92.511 17.8375C92.47 17.762 92.4332 17.6844 92.4008 17.6048V17.6048C92.682 17.5247 92.9252 17.3466 93.0866 17.1027C93.4518 16.6627 93.6162 16.0898 93.5397 15.523C93.5397 15.4251 93.4417 15.4128 93.3805 15.3883C93.3192 15.3638 93.3192 15.3883 93.2825 15.3883C93.3344 15.3652 93.3837 15.3364 93.4294 15.3026C93.6866 15.1312 93.6131 15.0822 93.5274 15.3026V15.3026V15.4618C93.4914 15.5649 93.4667 15.6717 93.4539 15.7802C93.4539 16.7231 93.3315 15.3393 93.0253 14.0413L92.7927 13.1228C92.6618 12.6439 92.6408 12.1415 92.7314 11.6533C92.7768 11.3742 92.8592 11.1025 92.9763 10.8451C93.0725 10.6103 93.251 10.4187 93.4784 10.3063C93.8392 10.1279 94.2291 10.0159 94.6295 9.97566C94.8479 9.93709 95.0691 9.91661 95.2908 9.91443C95.5542 9.93395 95.816 9.97077 96.0745 10.0246C96.6205 10.1296 97.133 10.3649 97.5685 10.7104C98.042 11.0232 98.4565 11.417 98.7931 11.8738C99.7975 13.2904 100.198 15.0478 99.9075 16.7599C99.6106 18.6834 98.6898 20.4561 97.2869 21.8051L97.1032 21.6949Z" fill="black"/>
</svg>
