<svg width="150" height="152" viewBox="0 0 150 152" fill="none" xmlns="http://www.w3.org/2000/svg">
    <path d="M56.4502 149.779C73.7728 154.199 92.6576 151.949 108.517 143.686C126.789 134.328 140.809 117.145 146.662 97.3942C151.131 82.2623 151.21 65.7366 146.306 50.7042C141.185 34.5568 130.111 20.5398 115.893 11.5204C101.24 2.10273 83.2449 -1.54088 66.0607 0.589538C49.8454 2.56067 34.3025 10.0271 22.7541 21.6946C9.99946 34.2382 2.14891 51.5603 0.32964 69.3802C-1.5885 89.4898 4.93714 110.296 18.0082 125.647C27.856 137.494 41.5401 146.075 56.4502 149.779ZM23.5451 45.9257C24.5734 43.5762 26.2542 41.6051 27.9153 39.6738C33.1556 33.9197 39.1869 28.723 46.286 25.4776C48.4217 24.5219 50.6562 23.6259 53.0094 23.4467C55.066 24.3228 56.9643 25.7165 59.278 25.8758C62.3826 26.5528 65.4872 25.6767 68.572 25.7564C72.1315 26.1347 75.7305 27.4488 78.2023 30.1367C80.8521 32.7848 84.4313 35.5523 84.4313 39.6738C82.3352 44.1735 77.174 46.4433 75.3548 51.182C74.4649 53.0536 74.3858 55.8212 72.0722 56.5778C67.8997 58.31 63.0549 57.3144 59.0011 59.5245C56.1733 60.9581 52.9105 63.5663 53.6224 67.1701C53.8992 70.1368 56.3117 72.1079 58.5463 73.7605C56.6479 76.2493 54.5123 79.3354 55.5208 82.6406C55.9163 84.7909 57.4587 86.6625 59.535 87.3792C65.0917 89.5097 71.2614 88.3748 76.917 90.0273C79.8634 90.8238 80.7928 94.1687 80.9312 96.8765C81.2674 102.432 77.8661 107.15 75.4141 111.829C73.9508 114.477 72.4479 117.364 72.8236 120.51C73.4564 125.946 74.5044 131.322 75.8491 136.618C69.6201 135.881 63.0747 134.388 58.2694 130.047C54.1959 126.682 52.0206 121.605 47.9075 118.28C43.6757 114.796 38.6134 112.546 34.0257 109.619C31.277 107.927 29.082 105.279 28.3899 102.073C27.0452 97.6331 31.0595 94.0493 31.1188 89.6889C34.7969 86.3837 39.2264 84.1537 43.6955 82.1428C46.108 81.0278 48.916 78.6385 48.0064 75.652C46.1673 72.9242 43.1023 71.3513 40.4129 69.5793C34.1839 66.2343 26.9266 68.3847 20.2625 68.2254C17.7511 68.2453 15.2991 66.1746 15.3584 63.5663C17.4743 59.425 21.8247 56.9561 23.7626 52.6952C24.692 50.4852 22.7146 48.1556 23.5451 45.9257ZM101.477 143.985C91.5304 147.967 80.7335 149.281 70.0749 148.723C69.6003 148.106 69.1257 147.469 68.6314 146.852C72.0919 144.741 76.0469 145.777 79.7843 146.016C81.4651 144.94 81.5442 142.591 82.6912 141.058C84.4116 141.396 85.8947 142.372 87.536 142.89C90.1067 142.073 91.7282 139.604 94.1012 138.41C96.5532 137.016 99.4799 137.673 102.07 138.171C101.873 140.102 101.675 142.053 101.477 143.985ZM120.144 20.938C123.111 22.1127 125.108 24.8206 127.402 26.9311C143.854 43.3771 151.191 68.3847 146.109 91.1821C143.498 90.8437 140.71 90.4853 138.258 91.7396C135.628 93.0139 132.919 94.328 129.933 94.2882C127.837 94.5072 125.523 93.651 123.645 94.8258C120.263 97.5336 120.065 102.83 116.249 105.1C113.757 106.015 111.661 103.746 110.059 102.153C105.195 96.5779 100.231 90.3658 99.1437 82.7998C98.4911 79.8531 101.279 77.9019 103.415 76.528C109.684 72.5061 117.356 72.4663 124.277 70.3359C126.413 69.7784 128.529 67.9665 128.41 65.5574C128.351 63.9446 126.808 62.9889 125.543 62.3319C122.715 61.0377 119.314 60.9979 116.961 58.7679C113.797 56.0203 109.644 54.2482 107.291 50.6643C108.141 48.2154 110.633 45.8062 109.288 43.0785C106.777 38.061 99.6183 37.5234 97.6606 32.1078C96.573 28.9221 99.9545 26.9112 102.209 25.5174C107.686 22.6702 113.836 19.8828 120.144 20.938ZM46.9979 9.78817C56.5095 5.92554 66.8517 4.09378 77.0949 4.55172C76.917 6.66223 76.917 9.01166 75.4536 10.7041C73.7728 12.8544 70.6682 13.4517 68.1766 12.5358C66.2782 11.5602 65.0917 9.66871 63.49 8.33471C62.9363 11.2018 62.1651 14.1884 59.8119 16.1396C57.5576 14.7658 56.4106 12.2172 54.275 10.7638C50.2805 11.5204 47.2945 14.8255 43.2407 15.5224C43.1616 13.0535 44.704 10.6642 46.9979 9.78817Z" fill="black"/>
</svg>
