<svg width="48" height="39" viewBox="0 0 48 39" fill="none" xmlns="http://www.w3.org/2000/svg">
    <path d="M3.63102 38.908C8.57789 38.5137 13.5498 38.1361 18.405 37.1041C19.5126 36.8775 20.2705 35.9714 21.1283 35.3085C28.7651 29.3848 36.7933 23.9897 44.8299 18.6282C46.0541 17.7388 47.6615 16.9249 47.9363 15.2635C48.2861 12.8303 47.1118 10.5565 46.4539 8.29102C45.3796 5.5725 44.1637 2.70295 41.7985 0.857037C41.2239 0.370387 40.5576 -0.267297 39.7498 0.118667C36.4935 1.08358 33.5787 2.88754 30.7472 4.73345C27.9157 6.57098 25.0758 8.39171 22.3025 10.3131C16.3563 14.4748 10.2935 18.5359 4.98019 23.5282C3.25628 25.1392 2.86485 27.5641 2.107 29.7036C1.24088 32.5648 0.166561 35.4176 0 38.4382C1.12429 38.9919 2.39847 39.1094 3.63102 38.908ZM24.7094 31.0713C22.7439 32.5228 20.7035 33.8653 18.8297 35.426C19.2961 32.6403 17.2308 29.6617 14.4492 29.217C13.3749 28.982 12.3255 29.3932 11.3178 29.7036C18.5716 25.2651 25.4256 20.214 32.4878 15.4901C34.0951 14.3826 35.8939 13.5938 37.5346 12.5199C38.1092 13.4344 38.6838 14.3574 39.0419 15.3894C39.5999 16.9165 39.7165 18.5778 40.3411 20.0881C35.0694 23.6541 29.8394 27.2955 24.7094 31.0713ZM32.1046 5.45502C34.6364 6.41154 37.368 7.40164 39.0836 9.66708C41.2322 12.1591 41.99 15.4733 42.4897 18.6449C41.9734 18.9889 41.4487 19.333 40.9324 19.677C40.3661 17.185 39.933 14.5587 38.4173 12.4359C36.6018 9.56639 33.7619 7.29256 30.4057 6.59615C30.972 6.21858 31.5383 5.8326 32.1046 5.45502ZM17.339 15.5404C21.4031 12.6289 25.5005 9.74258 29.6978 7.02405C32.571 7.79598 35.1444 9.49925 37.0015 11.8234C32.1213 14.3658 27.7324 17.7304 23.202 20.8432C19.3294 23.6541 15.2903 26.23 11.4844 29.1247C11.4261 27.9081 11.4011 26.5236 10.485 25.6007C9.42736 24.468 7.77839 24.3673 6.33764 24.426C9.81044 21.2292 13.4415 18.2086 17.339 15.5404ZM5.42157 25.5168C6.92895 25.3993 8.7861 25.2063 9.91872 26.4565C10.7599 27.6312 10.3518 29.1834 10.4184 30.5259C11.1929 31.2475 12.0257 30.4 12.8335 30.2071C14.5325 29.7791 16.5145 30.635 17.2807 32.246C17.947 33.278 17.8887 34.5366 18.0719 35.7112C14.674 36.3741 11.2512 36.8859 7.79505 37.188C7.29536 35.7868 6.67911 34.3268 5.47154 33.4038C4.65539 32.7829 3.65601 32.5145 2.69828 32.2376C3.60604 29.9973 4.24732 27.6396 5.42157 25.5168Z" fill="white"/>
    <path d="M27.949 23.9729C28.1988 24.3421 28.3071 24.9462 28.7984 25.1056C29.3314 25.1392 29.8561 25.0385 30.3891 24.9714C29.7811 24.2162 28.915 23.7799 27.949 23.9729Z" fill="white"/>
    <path d="M27.7074 25.6678C27.1745 25.5587 26.6415 25.7349 26.1251 25.8104C26.7914 26.7082 27.8823 26.8257 28.915 26.683C28.5403 26.3139 28.1905 25.8775 27.7074 25.6678Z" fill="white"/>
    <path d="M25.1674 27.6395C25.8919 27.7486 26.6164 27.8242 27.3493 27.8661C26.6831 27.5557 25.9835 27.3207 25.2839 27.1026C25.2506 27.2368 25.2007 27.5053 25.1674 27.6395Z" fill="white"/>
</svg>
