<svg width="128" height="101" viewBox="0 0 128 101" fill="none" xmlns="http://www.w3.org/2000/svg">
    <path d="M100.906 86.628C100.971 89.0686 100.947 91.3686 100.83 93.238C100.772 94.1728 100.69 94.9942 100.586 95.6685C100.48 96.3509 100.354 96.8531 100.22 97.1664C99.8073 98.1352 99.5172 98.5334 99.0663 98.7493C98.5629 98.9901 97.7775 99.0502 96.214 99.0066C93.5366 98.9314 89.8583 98.0543 86.5268 96.8445C84.8658 96.2413 83.3043 95.5608 82.0103 94.8648C80.7063 94.1633 79.7117 93.4655 79.1481 92.8425C78.2618 91.8627 77.734 91.0293 77.3157 89.4527C76.8869 87.8362 76.5782 85.4572 76.1587 81.3821C75.3535 73.5613 74.3459 68.1349 72.8403 64.4852C71.3217 60.8039 69.2684 58.8707 66.3766 58.1481C65.6874 57.976 64.5611 58.0274 63.2959 58.1918C62.0041 58.3596 60.4859 58.657 58.9655 59.0281C57.4446 59.3993 55.9119 59.847 54.5909 60.3164C53.2816 60.7817 52.141 61.2824 51.4317 61.7705C51.054 62.0305 50.6795 62.2947 50.4289 62.6728C50.1621 63.0755 50.0691 63.548 50.0922 64.1609C50.115 64.7624 50.2521 65.5493 50.4927 66.6206C50.7347 67.698 51.0891 69.0959 51.5572 70.9292C52.6109 75.0554 54.0188 81.6618 54.6843 85.6C54.986 87.3848 55.21 88.7173 55.3502 89.7428C55.491 90.7729 55.5421 91.4605 55.5102 91.9661C55.4795 92.4531 55.3728 92.7542 55.1986 93.0221C55.0085 93.3142 54.7258 93.5891 54.2753 94.0146C53.5994 94.6527 52.928 95.0367 51.5142 95.2817C50.0601 95.5338 47.8659 95.631 44.1616 95.6895C41.568 95.7305 39.7924 95.8638 38.4719 95.7884C37.1805 95.7146 36.5245 95.4452 36.0825 94.826C35.5932 94.1402 35.2985 92.9454 35.0523 90.7841C34.8086 88.6456 34.6221 85.6975 34.2696 81.5792C33.7058 74.9922 33.494 69.0694 33.6198 64.2918C33.7462 59.4926 34.2128 55.9102 34.9708 53.964C37.7913 46.7223 44.7852 41.1969 52.9915 38.4599C61.1945 35.7241 70.5153 35.8078 77.9152 39.6712C82.6769 42.1572 87.3292 46.8321 91.1745 52.7017C95.0162 58.5659 98.0302 65.5886 99.5371 72.7286C100.298 76.3334 100.777 81.7411 100.906 86.628Z" fill="#A8D672" stroke="black"/>
    <path d="M125.176 71.9487C125.414 78.1621 125.23 84.1642 124.555 87.8613L123.791 92.0481L116.123 93.7316C113.937 94.2113 111.805 94.5848 110.134 94.8008C109.297 94.9088 108.584 94.9763 108.04 94.9987C107.768 95.0099 107.546 95.01 107.377 94.9993C107.293 94.9939 107.227 94.9864 107.178 94.9779C107.129 94.9694 107.109 94.9613 107.109 94.9613C106.937 94.8896 106.809 94.7877 106.697 94.589C106.573 94.3698 106.464 94.0198 106.385 93.4409C106.227 92.2794 106.216 90.3829 106.3 87.2318C106.557 77.5906 105.388 66.9063 103.285 57.396C101.185 47.8992 98.1429 39.5138 94.6193 34.5076C86.1572 22.4848 68.5455 19.8696 50.0357 27.5455C36.2719 33.2533 27.6956 40.745 23.6616 50.7393C22.0077 54.8366 21.6491 57.4139 21.4013 66.4134C21.2645 71.3799 21.2324 74.232 21.5225 76.7111C21.8139 79.2016 22.4279 81.3027 23.5524 84.7677C24.2163 86.8135 24.8152 88.8336 25.2442 90.4386C25.4588 91.2413 25.63 91.936 25.7457 92.4762C25.8662 93.0391 25.9132 93.379 25.9096 93.5067C25.9018 93.7789 25.7239 94.1102 25.1143 94.4638C24.5082 94.8154 23.5714 95.1272 22.2861 95.3783C19.7234 95.879 15.9207 96.1107 10.9843 96.0364C8.19352 95.9945 6.14292 95.9639 4.6219 95.7799C3.0937 95.5951 2.21476 95.2653 1.6765 94.7176C1.14261 94.1743 0.853259 93.3236 0.749295 91.8549C0.64558 90.3894 0.731663 88.4239 0.848172 85.743C1.04799 81.1453 1.38687 76.3109 1.59685 74.9885C5.52843 50.238 16.1692 29.5577 32.2316 15.3666C44.3776 4.63584 59.4078 -0.822697 72.6313 0.623856C96.996 3.28937 116.329 23.9005 123.289 54.9521C124.28 59.3731 124.938 65.7403 125.176 71.9487Z" fill="#F7D44C" stroke="black"/>
</svg>
