<svg width="50" height="49" viewBox="0 0 50 49" fill="none" xmlns="http://www.w3.org/2000/svg">
    <path d="M22.3825 48.5633C21.8949 47.9813 21.8156 47.169 21.432 38.8207C21.2363 34.5608 20.9837 31.7957 20.7788 31.6703C20.5951 31.5577 18.1026 30.8082 15.24 30.0045C5.62717 27.3055 0.667905 25.7751 0.263241 25.3828C-0.33047 24.8072 0.116339 24.0271 1.2393 23.6787C1.78243 23.5102 5.52975 22.5822 9.56659 21.6166C13.6035 20.6509 17.0137 19.7639 17.1448 19.6454C17.276 19.5269 17.0034 15.2098 16.5391 10.0519C15.7311 1.07422 15.7188 0.656691 16.253 0.26985C17.0619 -0.315978 17.3617 -0.0904547 19.0674 2.38715C24.3526 10.0638 27.7378 14.9176 28.2201 15.5102L28.7751 16.1922L30.9614 14.5427C35.9291 10.7945 44.4406 4.67317 45.1059 4.37009C45.6702 4.11307 45.9327 4.15616 46.3552 4.57463C46.8602 5.07484 46.8019 5.27266 45.3139 8.11011C44.447 9.76317 42.314 13.8305 40.5737 17.1486L37.4097 23.1817L43.6121 28.9052C47.0234 32.0532 49.882 34.875 49.9644 35.1757C50.1914 36.0038 49.2949 36.7218 48.3291 36.4854C47.8813 36.3758 43.8721 34.974 39.4196 33.3701C34.967 31.7662 31.2717 30.5058 31.2078 30.5691C31.1439 30.6323 30.4136 32.6159 29.5849 34.9769C27.8035 40.0516 24.6213 48.0791 24.173 48.6285C23.7476 49.15 22.8465 49.1171 22.3825 48.5635V48.5633Z" fill="black"/>
</svg>
