<svg width="50" height="53" viewBox="0 0 50 53" fill="none" xmlns="http://www.w3.org/2000/svg">
    <path d="M0.879028 51.088C1.43444 43.3735 1.39384 42.2546 0.31834 35.6342C-0.429774 31.0292 0.177669 24.6825 1.75239 20.651C2.8722 17.7842 6.64197 10.6185 7.0315 10.6163C7.46841 10.6143 7.46091 11.0015 6.99408 12.5484C6.34386 14.703 6.21476 17.5226 6.58226 21.5427C7.23458 28.6783 7.0281 30.6726 5.00629 36.7644C4.34296 38.763 3.80211 40.5656 3.8044 40.7703C3.8096 41.27 6.73251 35.767 7.56824 33.683C7.93386 32.7713 8.77553 29.9741 9.43864 27.467C12.4639 16.0287 15.4858 9.8322 21.0255 3.70768C23.9208 0.506719 24.5077 0.368795 23.064 3.22862C22.2722 4.79703 20.9676 8.791 19.2077 15.0348C18.7108 16.7977 17.7175 19.3802 16.9761 20.8365L15.6401 23.461L18.0878 20.8365C19.9326 18.8583 20.6473 17.8717 20.9896 16.8305C23.098 10.4174 29.6694 6.03518 42.9348 2.19603C44.872 1.63537 47.1388 0.873752 47.9721 0.503531C49.4952 -0.173187 50 -0.168589 50 0.522089C50 0.972169 46.9926 3.69385 43.3366 6.55249C40.3221 8.90957 36.9316 10.8141 30.1378 13.9666C24.5102 16.5779 22.1923 18.0676 19.4752 20.8196C17.328 22.9943 14.8002 25.8877 14.8002 26.1708C14.8002 26.2608 15.6704 25.6768 16.734 24.873C20.5846 21.9628 24.1891 20.3899 31.4256 18.4618C33.5365 17.8993 36.2782 17.039 37.5183 16.5499C38.985 15.9714 39.9023 15.7462 40.1428 15.9055C40.4281 16.0944 40.3252 16.2911 39.6926 16.7667C39.2416 17.1057 37.0141 18.9837 34.7426 20.94C28.9968 25.8883 27.7089 26.6686 21.2626 29.1064C18.4272 30.1787 17.1295 30.554 14.5252 31.055C13.6933 31.215 12.3775 31.6418 11.6012 32.0033C10.313 32.6033 10.0503 32.8981 8.59167 35.382C4.88779 41.6892 3.30717 45.2024 2.02248 49.983C1.05147 53.5964 0.672014 53.9631 0.879003 51.0881L0.879028 51.088Z" fill="white"/>
</svg>
