<svg width="89" height="78" viewBox="0 0 89 78" fill="none" xmlns="http://www.w3.org/2000/svg">
    <path d="M81.1804 7.51593C79.0522 5.38678 76.5254 3.69779 73.7443 2.54544C70.9633 1.3931 67.9824 0.799988 64.972 0.799988C61.9617 0.799988 58.9808 1.3931 56.1997 2.54544C53.4186 3.69779 50.8919 5.38678 48.7637 7.51593L44.347 11.9326L39.9304 7.51593C35.6317 3.21721 29.8013 0.802216 23.722 0.802216C17.6427 0.802216 11.8124 3.21721 7.5137 7.51593C3.21498 11.8146 0.799988 17.645 0.799988 23.7243C0.799988 29.8036 3.21498 35.6339 7.5137 39.9326L44.347 76.7659L81.1804 39.9326C83.3095 37.8044 84.9985 35.2777 86.1508 32.4966C87.3032 29.7155 87.8963 26.7346 87.8963 23.7243C87.8963 20.7139 87.3032 17.733 86.1508 14.9519C84.9985 12.1709 83.3095 9.64408 81.1804 7.51593Z" stroke="#1E1E1E" stroke-width="1.6" stroke-linecap="round" stroke-linejoin="round"/>
</svg>
