<svg width="96" height="96" viewBox="0 0 96 96" fill="none" xmlns="http://www.w3.org/2000/svg">
    <path d="M45.3333 96C70.3702 96 90.6667 75.7036 90.6667 50.6667C90.6667 25.6298 70.3702 5.33334 45.3333 5.33334C20.2964 5.33334 0 25.6298 0 50.6667C0 75.7036 20.2964 96 45.3333 96Z" fill="#FFCC4D"/>
    <path d="M47.9974 76C50.9429 76 53.3307 73.0153 53.3307 69.3334C53.3307 65.6515 50.9429 62.6667 47.9974 62.6667C45.0519 62.6667 42.6641 65.6515 42.6641 69.3334C42.6641 73.0153 45.0519 76 47.9974 76Z" fill="#664500"/>
    <path d="M21.6293 57.0214C21.144 57.0214 20.6507 56.888 20.2107 56.6107C18.9653 55.8267 18.592 54.1814 19.376 52.9334C21.8187 49.0587 29.2453 42.432 39.8827 45.0347C41.312 45.384 42.1867 46.8294 41.8373 48.2587C41.4853 49.688 40.0347 50.5574 38.6133 50.2134C29.0027 47.8614 23.9413 55.696 23.8907 55.776C23.3813 56.5814 22.5147 57.0214 21.6293 57.0214ZM53.5573 47.0427C52.784 47.0427 52.0213 46.7094 51.4933 46.0667C50.56 44.928 50.7253 43.2454 51.8667 42.312C60.336 35.368 69.8987 38.1467 73.7733 40.5894C75.0187 41.3734 75.392 43.0214 74.6053 44.2667C73.824 45.5067 72.184 45.8854 70.936 45.1067C70.568 44.8827 62.7973 40.2454 55.2453 46.4374C54.7493 46.8454 54.152 47.0427 53.5573 47.0427Z" fill="#664500"/>
    <path d="M35.5893 83.3946C35.408 83.3946 35.224 83.3706 35.0427 83.32C33.9813 83.0186 33.3627 81.9146 33.664 80.8506C34.8293 76.744 34.352 72.7733 32.3573 69.9546C31.032 68.0826 29.144 66.9386 27.176 66.8133C26.072 66.7466 25.2347 65.7946 25.304 64.6933C25.3733 63.592 26.32 62.6906 27.424 62.824C30.6053 63.0213 33.592 64.7786 35.6187 67.6426C38.3147 71.4533 39.0053 76.664 37.5093 81.9386C37.2613 82.8213 36.4587 83.3946 35.5893 83.3946ZM65.0213 75.232C64.6427 75.232 64.2613 75.1253 63.9227 74.9013C60.8107 72.848 59.0693 69.256 59.144 65.048C59.2213 60.688 61.3013 56.64 64.4347 54.7306C65.376 54.1546 66.6053 54.4533 67.1813 55.4C67.7573 56.344 67.4587 57.5706 66.512 58.1466C64.552 59.3413 63.1947 62.144 63.1413 65.1173C63.088 67.9306 64.1787 70.28 66.1227 71.5626C67.0453 72.1706 67.2987 73.4106 66.6907 74.3333C66.3067 74.9173 65.672 75.232 65.0213 75.232Z" fill="#E2A62D"/>
    <path d="M45.8107 7.25334C45.696 7.12268 45.5174 7.05068 45.3067 7.01068C45.3067 7.01068 2.84269 -1.05066 1.00535 0.570677C-0.829312 2.19468 1.97335 45.328 1.97335 45.328C1.98669 45.544 2.03469 45.728 2.15202 45.8587C3.76269 47.6827 14.84 40.5147 26.896 29.856C38.9547 19.1947 47.4214 9.07734 45.8107 7.25334Z" fill="#DD2E44"/>
    <path d="M0.930618 0.722676C0.890618 0.802676 0.855951 0.912009 0.829285 1.05068C1.25328 4.70668 5.34928 34.7893 7.90128 44.192C11.7306 42.0507 15.6213 39.1413 20.192 35.5173C16.3093 28.4107 3.08795 0.389342 0.930618 0.722676Z" fill="#EA596E"/>
    <path d="M79.7387 77.944L51.544 74.4693C48.5307 74.1973 43.232 74.1707 43.504 69.3973C43.752 65.0693 48.944 65.736 52.7814 66.304L81.1494 71.0347L79.7387 77.944Z" fill="#3B88C3"/>
    <path d="M81.1467 71.0373L69.888 69.1066C68.5707 68.8693 67.3974 70.832 67.3387 72.9093C67.272 75.2186 67.944 76.3866 69.2747 76.6586L80.3254 78.024L81.1467 71.0373Z" fill="#88C9F9"/>
    <path d="M93.1147 70.2426L86.1227 76.672L73.624 63.08L80.616 56.6506C84.2454 53.312 89.9467 53.552 93.2854 57.1813L93.6454 57.5733C96.9814 61.2053 96.744 66.904 93.1147 70.2426Z" fill="#3B88C3"/>
    <path d="M86.1183 76.6757C89.1214 73.9145 88.7583 68.6335 85.3073 64.8801C81.8563 61.1268 76.6242 60.3226 73.6212 63.0837C70.6181 65.8449 70.9812 71.126 74.4322 74.8793C77.8831 78.6326 83.1152 79.4369 86.1183 76.6757Z" fill="#88C9F9"/>
    <path d="M83.6185 73.9569C85.12 72.5763 84.6589 69.6317 82.5885 67.3799C80.5181 65.1282 77.6225 64.4219 76.1209 65.8025C74.6194 67.1831 75.0805 70.1277 77.1509 72.3795C79.2213 74.6313 82.117 75.3375 83.6185 73.9569Z" fill="#226699"/>
    <path d="M6.66669 93.3333C8.87583 93.3333 10.6667 91.5425 10.6667 89.3333C10.6667 87.1242 8.87583 85.3333 6.66669 85.3333C4.45755 85.3333 2.66669 87.1242 2.66669 89.3333C2.66669 91.5425 4.45755 93.3333 6.66669 93.3333Z" fill="#55ACEE"/>
    <path d="M77.3333 10.6667C80.2789 10.6667 82.6667 8.27885 82.6667 5.33333C82.6667 2.38781 80.2789 0 77.3333 0C74.3878 0 72 2.38781 72 5.33333C72 8.27885 74.3878 10.6667 77.3333 10.6667Z" fill="#55ACEE"/>
    <path d="M12.9706 77.9893L6.73597 63.0133L1.09863 79.1333L12.9706 77.9893ZM69.3333 13.3333L58.6666 16L61.3333 5.33334L69.3333 13.3333Z" fill="#EA596E"/>
    <path d="M85.3307 34.6667L96.0001 21.3307L88.0001 16L85.3307 34.6667Z" fill="#77B255"/>
</svg>
