<svg width="38" height="43" viewBox="0 0 38 43" fill="none" xmlns="http://www.w3.org/2000/svg">
    <path d="M3.04174 25.3332C2.66335 25.3411 2.29048 25.2415 1.96646 25.0459C1.64245 24.8503 1.38057 24.5668 1.21127 24.2283C1.04197 23.8898 0.972191 23.5102 1.01004 23.1337C1.04788 22.7571 1.1918 22.399 1.42508 22.1009L20.866 1.3585C21.0115 1.1845 21.2119 1.06513 21.4342 1.02C21.6565 0.974865 21.8875 1.00664 22.0893 1.11012C22.2912 1.2136 22.4519 1.38262 22.545 1.58945C22.6381 1.79628 22.6582 2.02862 22.6018 2.24834L18.9725 14.3535C18.8646 14.6585 18.8323 14.9851 18.8783 15.3053C18.9244 15.6255 19.0474 15.9298 19.2368 16.192C19.4263 16.4543 19.6766 16.6666 19.9661 16.8109C20.2557 16.9551 20.5759 17.027 20.8994 17.0203L34.8972 16.776C35.2756 16.7681 35.6485 16.8677 35.9725 17.0633C36.2965 17.2589 36.5584 17.5424 36.7277 17.8809C36.897 18.2194 36.9668 18.599 36.9289 18.9755C36.8911 19.3521 36.7472 19.7102 36.5139 20.0082L17.0729 40.7507C16.9274 40.9247 16.7271 41.0441 16.5048 41.0892C16.2825 41.1343 16.0515 41.1026 15.8496 40.9991C15.6478 40.8956 15.4871 40.7266 15.394 40.5197C15.3009 40.3129 15.2808 40.0806 15.3372 39.8609L18.9664 27.7557C19.0744 27.4507 19.1067 27.1241 19.0607 26.8039C19.0146 26.4837 18.8916 26.1794 18.7021 25.9172C18.5127 25.6549 18.2624 25.4426 17.9728 25.2983C17.6833 25.1541 17.363 25.0822 17.0396 25.0889L3.04174 25.3332Z" stroke="black" stroke-width="2" stroke-linecap="round" stroke-linejoin="round"/>
</svg>
