<svg width="72" height="31" viewBox="0 0 72 31" fill="none" xmlns="http://www.w3.org/2000/svg">
    <path d="M23.1666 15.5857C24.5473 15.5857 25.6666 14.4728 25.6666 13.1C25.6666 11.7272 24.5473 10.6143 23.1666 10.6143C21.7859 10.6143 20.6666 11.7272 20.6666 13.1C20.6666 14.4728 21.7859 15.5857 23.1666 15.5857Z" fill="black" stroke="black" stroke-linecap="round" stroke-linejoin="round"/>
    <path d="M48.1666 15.5857C49.5473 15.5857 50.6666 14.4728 50.6666 13.1C50.6666 11.7272 49.5473 10.6143 48.1666 10.6143C46.7859 10.6143 45.6666 11.7272 45.6666 13.1C45.6666 14.4728 46.7859 15.5857 48.1666 15.5857Z" fill="black" stroke="black" stroke-linecap="round" stroke-linejoin="round"/>
    <path d="M12.75 17.2429C16.9167 31.7429 54.4167 31.7429 58.5833 17.2429" stroke="black" stroke-width="5" stroke-linecap="round" stroke-linejoin="round"/>
    <path d="M10.6667 2.74286C10.6667 5.50476 12.0556 6.88571 14.8333 6.88571C12.0556 6.88571 10.6667 8.26667 10.6667 11.0286C10.6667 8.26667 9.27778 6.88571 6.5 6.88571C9.27778 6.88571 10.6667 5.50476 10.6667 2.74286Z" stroke="black" stroke-width="3" stroke-linecap="round" stroke-linejoin="round"/>
    <path d="M4.41667 11.0286C4.41667 12.9619 5.38889 13.9286 7.33333 13.9286C5.38889 13.9286 4.41667 14.8952 4.41667 16.8286C4.41667 14.8952 3.44444 13.9286 1.5 13.9286C3.44444 13.9286 4.41667 12.9619 4.41667 11.0286Z" stroke="black" stroke-width="3" stroke-linecap="round" stroke-linejoin="round"/>
    <path d="M58.5833 1.5C58.5833 4.2619 59.9722 5.64286 62.75 5.64286C59.9722 5.64286 58.5833 7.02381 58.5833 9.78571C58.5833 7.02381 57.1944 5.64286 54.4166 5.64286C57.1944 5.64286 58.5833 4.2619 58.5833 1.5Z" stroke="black" stroke-width="3" stroke-linecap="round" stroke-linejoin="round"/>
    <path d="M66.9167 8.95714C66.9167 11.1667 68.0278 12.2714 70.25 12.2714C68.0278 12.2714 66.9167 13.3762 66.9167 15.5857C66.9167 13.3762 65.8056 12.2714 63.5834 12.2714C65.8056 12.2714 66.9167 11.1667 66.9167 8.95714Z" stroke="black" stroke-width="3" stroke-linecap="round" stroke-linejoin="round"/>
</svg>
